<?xml version="1.0" standalone="no"?>
<!DOCTYPE svg PUBLIC "-//W3C//DTD SVG 20010904//EN"
 "http://www.w3.org/TR/2001/REC-SVG-20010904/DTD/svg10.dtd">
<svg version="1.0" xmlns="http://www.w3.org/2000/svg"
 width="96.000000pt" height="96.000000pt" viewBox="0 0 96.000000 96.000000"
 preserveAspectRatio="xMidYMid meet">

<g transform="translate(0.000000,96.000000) scale(0.100000,-0.100000)"
fill="#000000" stroke="none">
<path d="M195 831 c-11 -5 -31 -21 -45 -35 -20 -22 -25 -38 -25 -83 0 -42 4
-58 18 -67 27 -17 51 4 55 50 5 51 15 62 64 66 48 3 70 27 52 56 -12 19 -85
27 -119 13z"/>
<path d="M653 829 c-32 -33 -6 -69 48 -69 44 0 56 -13 61 -64 4 -46 28 -67 56
-50 13 9 17 25 17 68 0 49 -4 60 -32 88 -26 25 -42 32 -85 35 -35 3 -57 0 -65
-8z"/>
<path d="M291 626 c-19 -22 -10 -126 12 -140 32 -20 52 4 55 68 3 61 -8 86
-38 86 -10 0 -23 -6 -29 -14z"/>
<path d="M452 628 c-7 -7 -12 -40 -12 -78 0 -54 -3 -67 -20 -78 -39 -24 -18
-72 32 -72 53 0 68 29 68 128 0 89 -8 112 -40 112 -9 0 -21 -5 -28 -12z"/>
<path d="M611 626 c-19 -22 -10 -126 12 -140 32 -20 52 4 55 68 3 61 -8 86
-38 86 -10 0 -23 -6 -29 -14z"/>
<path d="M330 345 c-45 -54 78 -118 194 -101 59 9 111 45 111 75 0 40 -26 47
-77 23 -55 -27 -102 -28 -153 -2 -47 24 -59 25 -75 5z"/>
<path d="M130 305 c-8 -10 -11 -33 -8 -66 4 -40 12 -58 37 -82 27 -28 38 -32
87 -32 43 0 59 4 68 18 17 27 -4 51 -50 55 -51 5 -64 17 -64 61 0 56 -40 82
-70 46z"/>
<path d="M772 308 c-7 -7 -12 -29 -12 -49 0 -44 -13 -56 -64 -61 -46 -4 -67
-28 -50 -55 9 -14 25 -18 68 -18 49 0 60 4 87 32 53 52 52 163 0 163 -9 0 -22
-5 -29 -12z"/>
</g>
</svg>
